<svg xmlns="http://www.w3.org/2000/svg" width="24" height="24" fill="none"><path fill="#252420" fill-rule="evenodd" d="M12 0H7C2.8.4.4 2.8 0 7a84.3 84.3 0 0 0 0 10c.3 4.3 2.7 6.7 7 7a85.6 85.6 0 0 0 10 0c4.3-.3 6.7-2.7 7-7a84.3 84.3 0 0 0 0-10c-.3-4.3-2.7-6.7-7-7h-5Zm0 2.2h4.9c3.2.2 4.7 1.7 4.9 5a83.4 83.4 0 0 1 0 9.7c-.2 3.2-1.7 4.7-5 4.9a83 83 0 0 1-9.6 0c-3.3-.2-4.8-1.7-5-5a83 83 0 0 1 0-9.6c.2-3.3 1.7-4.8 5-5H12ZM5.8 12a6.2 6.2 0 1 1 12.4 0 6.2 6.2 0 0 1-12.4 0Zm6.2 4a4 4 0 1 1 0-8 4 4 0 0 1 0 8Zm5-10.4a1.4 1.4 0 1 1 2.8 0 1.4 1.4 0 0 1-2.8 0Z" clip-rule="evenodd"/></svg>