<svg xmlns="http://www.w3.org/2000/svg" width="46" height="46" fill="none"><path fill="#FF7500" fill-rule="evenodd" d="M9 .6c1.5 0 2.8 1.3 2.8 2.8v2.8h2.8a2.8 2.8 0 1 1 0 5.6h-2.8v2.8a2.8 2.8 0 1 1-5.6 0v-2.8H3.4a2.8 2.8 0 0 1 0-5.6h2.8V3.4C6.2 1.9 7.5.6 9 .6Zm0 28c1.5 0 2.8 1.3 2.8 2.8v2.8h2.8a2.8 2.8 0 1 1 0 5.6h-2.8v2.8a2.8 2.8 0 1 1-5.6 0v-2.8H3.4a2.8 2.8 0 1 1 0-5.6h2.8v-2.8c0-1.5 1.3-2.8 2.8-2.8ZM28.6.6c1.3 0 2.4.9 2.7 2l3.3 12.6 9.4 5.4a2.8 2.8 0 0 1 0 4.8l-9.4 5.4-3.3 12.5a2.8 2.8 0 0 1-5.4 0l-3.3-12.5-9.4-5.4a2.8 2.8 0 0 1 0-4.8l9.4-5.4 3.3-12.5c.3-1.2 1.4-2.1 2.7-2.1Z" clip-rule="evenodd"/></svg>