<svg width="48" height="48" viewBox="0 0 48 48" fill="none" xmlns="http://www.w3.org/2000/svg">
<path d="M15.6809 2.35225C15.2807 0.858542 13.7453 -0.0278893 12.2516 0.372348C10.7579 0.772585 9.87148 2.30793 10.2717 3.80163L10.9964 6.50623C11.3967 7.99993 12.932 8.88636 14.4257 8.48612C15.9194 8.08589 16.8058 6.55054 16.4056 5.05684L15.6809 2.35225Z" fill="#FF7500"/>
<path d="M3.80151 10.2718C2.30781 9.8716 0.772463 10.758 0.372226 12.2517C-0.0280113 13.7454 0.858419 15.2808 2.35212 15.681L5.05672 16.4057C6.55042 16.806 8.08577 15.9195 8.486 14.4258C8.88624 12.9321 7.99981 11.3968 6.5061 10.9965L3.80151 10.2718Z" fill="#FF7500"/>
<path d="M28.4792 8.6803C29.5726 7.58684 29.5726 5.81398 28.4792 4.72051C27.3857 3.62704 25.6128 3.62704 24.5194 4.72051L22.5395 6.70041C21.446 7.79388 21.446 9.56674 22.5395 10.6602C23.6329 11.7537 25.4058 11.7537 26.4993 10.6602L28.4792 8.6803Z" fill="#FF7500"/>
<path d="M8.68018 28.4793L10.6601 26.4994C11.7536 25.4059 11.7536 23.6331 10.6601 22.5396C9.56662 21.4461 7.79375 21.4461 6.70028 22.5396L4.72039 24.5195C3.62692 25.613 3.62692 27.3858 4.72039 28.4793C5.81385 29.5728 7.58672 29.5728 8.68018 28.4793Z" fill="#FF7500"/>
<path d="M17.64 14.0004C16.6 13.5844 15.4122 13.8282 14.6202 14.6202C13.8282 15.4122 13.5844 16.6 14.0003 17.64L25.2003 45.64C25.6098 46.6638 26.582 47.3519 27.6837 47.3977C28.7854 47.4435 29.8114 46.8385 30.3045 45.8523L34.1671 38.127L42.6202 46.58C43.7136 47.6735 45.4865 47.6735 46.58 46.58C47.6735 45.4865 47.6735 43.7137 46.58 42.6202L38.1269 34.1672L45.8523 30.3045C46.8385 29.8114 47.4435 28.7854 47.3977 27.6837C47.3518 26.5821 46.6637 25.6099 45.64 25.2004L17.64 14.0004Z" fill="#FF7500"/>
</svg>
