<svg xmlns="http://www.w3.org/2000/svg" width="227" height="60" fill="none"><g clip-path="url(#a)"><path fill="#252420" d="M19 0 0 13.6v35l10.5 10.6-.2-36.8 8.7-7 8.7 7-.2 36.8L38 48.7v-35L19 0Z"/><path fill="#FF7401" d="m26 29.6-7 4.2-7-4.2v12.3l7 4.2 7-4.2V29.6Z"/></g><path fill="#252420" d="M62.7 36h-6.3l-1.2 4.6h-4.9l7.2-22.8h4.2l7.1 22.8H64l-1.2-4.7ZM57.4 32h4.3L59.5 24l-2 8.1Zm19 2-1.2 1.3v5.2h-4.5v-24h4.5v13l.5-.9 3-5H84l-4.9 7 5.4 9.9h-5L76.2 34ZM94 40.6l-.4-1.3c-.8 1-1.9 1.6-3.2 1.6-1.4 0-2.6-.5-3.5-1.4a5 5 0 0 1-1.4-3.6c0-1.8.5-3.2 1.7-4.2 1-1 2.7-1.4 4.8-1.4h1.4v-1.4c0-.8-.1-1.3-.4-1.6-.3-.3-.6-.5-1.1-.5-1.2 0-1.7.7-1.7 2h-4.4c0-1.6.6-2.9 1.7-3.9 1.2-1 2.7-1.5 4.5-1.5 1.8 0 3.3.5 4.3 1.4 1 1 1.5 2.4 1.5 4.2v7.9c0 1.5.2 2.6.6 3.4v.3h-4.4Zm-2.6-3.2c.5 0 .9 0 1.2-.3.4-.2.6-.4.8-.7V33h-1c-.8 0-1.4.3-1.9.7-.4.5-.6 1.2-.6 2 0 1.2.5 1.8 1.5 1.8Zm9-5.8c0-2.7.5-4.8 1.4-6.2 1-1.3 2.3-2 4.1-2a4 4 0 0 1 3.3 1.7v-8.5h4.4v24h-4l-.2-1.7c-1 1.3-2 2-3.5 2-1.8 0-3.1-.7-4-2-1-1.4-1.5-3.4-1.5-6v-1.3Zm4.5 1.1c0 1.7.1 2.9.5 3.5.3.7 1 1 1.8 1 .9 0 1.5-.4 2-1.2v-7.7c-.5-.8-1.1-1.2-2-1.2-.8 0-1.4.3-1.8 1-.4.6-.5 1.8-.5 3.5v1.1Zm18.8 8.2a7 7 0 0 1-5.3-2c-1.3-1.4-2-3.3-2-5.8v-1.4c0-2.6.7-4.7 1.8-6.2a6 6 0 0 1 5-2.1c2.2 0 3.8.7 4.9 2 1 1.4 1.6 3.4 1.6 6v2.2H121c0 1.3.3 2.2.8 2.8.5.5 1.3.8 2.3.8a5 5 0 0 0 3.7-1.5l1.7 2.7c-.5.7-1.3 1.3-2.3 1.8-1 .5-2.2.7-3.4.7ZM121 30.5h4.5v-.4c0-1-.2-1.8-.5-2.3-.4-.5-.9-.8-1.7-.8-.7 0-1.3.3-1.7.9-.3.5-.5 1.4-.6 2.6Zm15.5-6.8v1.5c1-1.2 2.4-1.8 4-1.8 1.7 0 2.9.7 3.6 2.3 1-1.6 2.3-2.3 4.1-2.3 3 0 4.5 2 4.6 6.1v11h-4.5V29.9a4 4 0 0 0-.4-2.1c-.2-.4-.7-.6-1.3-.6-.9 0-1.5.5-1.9 1.5v12h-4.4V29.8c0-1-.1-1.6-.4-2-.2-.5-.7-.7-1.4-.7s-1.3.4-1.8 1.2v12.3h-4.4v-17h4.2Z"/><path fill="#FF7500" d="m160 23.7.2 1.7c1-1.4 2.3-2 4-2 2.8 0 4.3 2 4.4 6v11.2h-4.4V29.8c0-1-.2-1.6-.4-2-.3-.5-.8-.7-1.6-.7s-1.4.4-1.8 1.2v12.3h-4.5v-17h4.2Zm19.8 16.9-.3-1.3c-.8 1-2 1.6-3.3 1.6-1.4 0-2.6-.5-3.5-1.4a5 5 0 0 1-1.4-3.6c0-1.8.6-3.2 1.7-4.2s2.8-1.4 4.9-1.4h1.3v-1.4c0-.8-.1-1.3-.4-1.6-.2-.3-.6-.5-1.1-.5-1.1 0-1.7.7-1.7 2h-4.4c0-1.6.6-2.9 1.8-3.9 1.2-1 2.6-1.5 4.4-1.5 1.9 0 3.3.5 4.3 1.4 1 1 1.6 2.4 1.6 4.2v7.9c0 1.5.2 2.6.6 3.4v.3h-4.5Zm-2.6-3.2c.5 0 1 0 1.3-.3.3-.2.6-.4.7-.7V33h-1c-.8 0-1.4.3-1.8.7-.4.5-.7 1.2-.7 2 0 1.2.5 1.8 1.5 1.8Zm17.1-1.3c0-.4-.1-.8-.5-1-.4-.4-1.2-.8-2.4-1.4a10 10 0 0 1-3.8-2.3c-.6-.8-1-1.7-1-3 0-1.4.6-2.6 1.6-3.6s2.5-1.4 4.3-1.4c1.8 0 3.3.5 4.4 1.4 1.1 1 1.7 2.3 1.7 3.9h-4.4c0-1.4-.6-2-1.7-2-.5 0-.9 0-1.2.3-.3.3-.5.7-.5 1.3 0 .3.2.7.5 1l2.4 1.2c1.8.6 3 1.4 3.8 2.2.8.8 1.1 1.9 1.1 3.2 0 1.5-.5 2.7-1.7 3.6a6.9 6.9 0 0 1-4.4 1.4c-1.3 0-2.4-.2-3.3-.7-1-.5-1.7-1.2-2.2-2-.6-1-.8-1.8-.8-2.8h4.2c0 .7.2 1.3.5 1.7.3.4.9.6 1.7.6 1.2 0 1.7-.6 1.7-1.6Zm11.4-11c1-1.1 2.1-1.7 3.5-1.7 1.6 0 2.7.5 3.6 1.6.8 1 1.2 2.7 1.2 4.8v10.8h-4.5V29.9c0-1-.1-1.7-.4-2.2-.3-.4-.8-.6-1.5-.6a2 2 0 0 0-1.9 1v12.5h-4.4v-24h4.4v8.6Zm19.8 2.9-1.5-.2c-1.2 0-2 .6-2.4 1.6v11.2H217v-17h4.2l.1 2c.7-1.5 1.7-2.2 3-2.2.4 0 .8 0 1.1.2V28Z"/><defs><clipPath id="a"><path fill="#fff" d="M0 0h38v59.2H0z"/></clipPath></defs></svg>